<?xml version="1.0" encoding="iso-8859-1"?>
<!-- Generator: Adobe Illustrator 16.0.0, SVG Export Plug-In . SVG Version: 6.00 Build 0)  -->
<!DOCTYPE svg PUBLIC "-//W3C//DTD SVG 1.1//EN" "http://www.w3.org/Graphics/SVG/1.1/DTD/svg11.dtd">
<svg version="1.1" id="Capa_1" xmlns="http://www.w3.org/2000/svg" xmlns:xlink="http://www.w3.org/1999/xlink" x="0px" y="0px"
	 width="472.705px" height="472.705px" viewBox="0 0 472.705 472.705" style="enable-background:new 0 0 472.705 472.705;"
	 xml:space="preserve">
<g>
	<g id="Layer_2_16_">
		<g>
			<path d="M149.735,125.643v51.083c0.069,9.343,7.736,20.007,7.736,20.007s-7.688,3.51-7.688,17.617
				c2.695,35.398,16.774,20.142,19.679,35.652c4.829,25.785,27.658,44.436,41.869,50.877c8.19,3.71,16.617,5.607,25.473,5.799v-0.02
				c8.833-0.197,17.238-2.094,25.407-5.795c14.211-6.441,37.041-25.092,41.869-50.877c2.904-15.511,16.982-0.254,19.68-35.652
				c0-14.107-7.689-17.617-7.689-17.617s7.668-10.664,7.736-20.007v-51.083c22.73-5.394,39.711-25.822,39.711-50.181
				c0-28.467-23.158-51.626-51.625-51.626c-6.801,0-13.43,1.35-19.633,3.965C279.918,10.658,259.325,0.092,236.738,0v0.017
				c-22.562,0.112-43.126,10.674-55.457,27.784c-6.202-2.615-12.832-3.965-19.632-3.965c-28.467,0-51.625,23.159-51.625,51.626
				C110.024,99.821,127.005,120.25,149.735,125.643z"/>
			<path d="M352.143,338.593c-16.1-5.806-32.414-13.765-42.246-19.7c-2.072-1.318-4.52-2.091-7.154-2.091
				c-3.566,0-6.801,1.405-9.195,3.683c-0.012,0.004-0.023,0.011-0.035,0.015c-15.453,15.108-44.021,19.655-53.746,19.655
				c-0.83,0-2.524,0.013-3.414,0.019c-0.889-0.006-2.583-0.019-3.414-0.019c-9.724,0-38.292-4.547-53.745-19.655
				c-0.011-0.004-0.024-0.011-0.035-0.015c-2.395-2.276-5.627-3.683-9.195-3.683c-2.634,0-5.083,0.771-7.154,2.091
				c-9.833,5.937-26.147,13.896-42.248,19.7C69.407,357.037,46.4,375.846,46.4,388.68c0,12.805,0,84.025,0,84.025h184.992h0.258
				h4.702h4.703h0.258h184.992c0,0,0-71.223,0-84.025C426.305,375.846,403.299,357.038,352.143,338.593z M236.496,454.059
				c-0.007,0-0.015,0-0.022,0s-0.015,0-0.022,0c-6.413,0-11.611-5.195-11.611-11.611c0-6.41,5.199-11.611,11.611-11.611
				c0.007,0,0.015,0.002,0.022,0.002s0.015-0.002,0.022-0.002c6.413,0,11.612,5.201,11.612,11.611
				C248.108,448.863,242.909,454.059,236.496,454.059z M236.496,414.309c-0.007,0-0.015,0-0.022,0s-0.015,0-0.022,0
				c-6.413,0-11.611-5.195-11.611-11.611c0-6.41,5.199-11.611,11.611-11.611c0.007,0,0.015,0.002,0.022,0.002
				s0.015-0.002,0.022-0.002c6.413,0,11.612,5.201,11.612,11.611C248.108,409.113,242.909,414.309,236.496,414.309z
				 M236.496,375.557c-0.007,0-0.015-0.002-0.022-0.002s-0.015,0.002-0.022,0.002c-6.413,0-11.611-5.197-11.611-11.613
				c0-6.41,5.199-11.611,11.611-11.611c0.007,0,0.015,0.001,0.022,0.001s0.015-0.001,0.022-0.001
				c6.413,0,11.612,5.201,11.612,11.611C248.108,370.359,242.909,375.557,236.496,375.557z"/>
		</g>
	</g>
</g>
<g>
</g>
<g>
</g>
<g>
</g>
<g>
</g>
<g>
</g>
<g>
</g>
<g>
</g>
<g>
</g>
<g>
</g>
<g>
</g>
<g>
</g>
<g>
</g>
<g>
</g>
<g>
</g>
<g>
</g>
</svg>
