<?xml version="1.0" encoding="iso-8859-1"?>
<!-- Generator: Adobe Illustrator 18.1.1, SVG Export Plug-In . SVG Version: 6.00 Build 0)  -->
<svg version="1.1" id="Capa_1" xmlns="http://www.w3.org/2000/svg" xmlns:xlink="http://www.w3.org/1999/xlink" x="0px" y="0px"
	 viewBox="0 0 33.131 33.131" style="enable-background:new 0 0 33.131 33.131;" xml:space="preserve">
<g>
	<g id="b149_recipes_book">
		<polygon points="3.927,29.35 5.529,29.35 5.529,26.25 3.927,26.25 3.927,24.883 5.529,24.883 5.529,22.07 3.927,22.07 
			3.927,20.701 5.529,20.701 5.529,17.814 3.927,17.814 3.927,16.449 5.529,16.449 5.529,13.561 3.927,13.561 3.927,12.193 
			5.529,12.193 5.529,9.59 3.927,9.59 3.927,8.225 5.529,8.225 5.529,3.473 2.331,3.473 2.331,33.131 5.529,33.131 5.529,30.721 
			3.927,30.721 		"/>
		<rect x="5.529" y="8.225" width="1.354" height="1.365"/>
		<rect x="5.529" y="12.193" width="1.354" height="1.367"/>
		<rect x="5.529" y="16.449" width="1.354" height="1.365"/>
		<rect x="5.529" y="20.701" width="1.354" height="1.369"/>
		<rect x="5.529" y="24.883" width="1.354" height="1.367"/>
		<rect x="5.529" y="29.35" width="1.354" height="1.371"/>
		<path d="M30.799,30.1V1.143C30.799,0.23,29.655,0,29.655,0H5.552c-2.095,0-2.91,1.373-3.221,2.438h3.452h21.358
			c1.293,0,1.258,1.139,1.258,1.139V30.05h-1.502V3.473H6.883v4.752h1.371V9.59H6.883v2.604h1.371v1.367H6.883v2.889h1.371v1.365
			H6.883v2.887h1.371v1.369H6.883v2.812h1.371v1.367H6.883v3.1h1.371v1.371H6.883v2.41h20.015v-1.74h1.468v0.004l1.211-0.004
			C30.892,31.391,30.799,30.1,30.799,30.1z M23.099,15.656c-0.947,0.945-2.176,1.307-3.021,0.969l0.052,0.055l-1.772,1.775
			l3.968,3.967c0,0,0.108,0.873-0.875,0.873l-3.97-3.965l-3.982,3.986c0,0-0.878,0.113-0.878-0.873l3.991-3.988l-1.797-1.795
			l0.009-0.014c-0.817,0.328-1.321,0.67-2.212-0.162l-0.003,0.006l-2.687-2.688l0.426-0.434l2.816,2.389l0.504-0.512l-2.584-2.713
			l0.41-0.412l2.705,2.6l0.596-0.596l-2.461-2.736l0.449-0.449l2.685,2.689v0.004c0.831,0.887,0.492,1.391,0.162,2.211l0.057-0.059
			l1.794,1.797l1.778-1.773l0.011,0.008c-0.342-0.844,0.023-2.076,0.968-3.021c1.151-1.15,2.723-1.439,3.509-0.65
			C24.537,12.934,24.248,14.506,23.099,15.656z"/>
	</g>
	<g id="Capa_1_164_">
	</g>
</g>
<g>
</g>
<g>
</g>
<g>
</g>
<g>
</g>
<g>
</g>
<g>
</g>
<g>
</g>
<g>
</g>
<g>
</g>
<g>
</g>
<g>
</g>
<g>
</g>
<g>
</g>
<g>
</g>
<g>
</g>
</svg>
