<?xml version="1.0" encoding="utf-8"?>
<!-- Generator: Adobe Illustrator 26.0.1, SVG Export Plug-In . SVG Version: 6.00 Build 0)  -->
<svg version="1.1" id="Layer_1" xmlns="http://www.w3.org/2000/svg" xmlns:xlink="http://www.w3.org/1999/xlink" x="0px" y="0px"
	 viewBox="0 0 694.5 122" enable-background="new 0 0 694.5 122" xml:space="preserve">
<filter  height="300%" id="editing-hole" width="300%" x="-100%" y="-100%">
	<feFlood  flood-color="#000" result="black"></feFlood>
	<feMorphology  in="SourceGraphic" operator="dilate" radius="2" result="erode"></feMorphology>
	<feGaussianBlur  in="erode" result="blur" stdDeviation="4"></feGaussianBlur>
	<feOffset  dx="2" dy="2" in="blur" result="offset"></feOffset>
	<feComposite  in="offset" in2="black" operator="atop" result="merge"></feComposite>
	<feComposite  in="merge" in2="SourceGraphic" operator="in" result="inner-shadow"></feComposite>
</filter>
<g filter="url(#editing-hole)">
	<g transform="translate(2.384981870651245, 99)">
		<path fill="#CCCCCC" d="M111.4-14H97.8l7.3-38.9l0.7-3.3h13.7L111.4-14z M137.4-17.8L137.4-17.8L137.4-17.8
			c-1.2,3.4-4,5.1-8.4,5.1l0,0l0,0c-3.3,0-6.1-2-8.3-5.9l0,0l0,0c-2.3-3.9-3.7-9.1-4.1-15.5l0,0l0,0c4.7-8.6,8.7-14.6,11.9-18.2l0,0
			l0,0c3.1-3.4,6.3-5.1,9.5-5.1l0,0l0,0c1.7,0,3.2,0.5,4.5,1.4l0,0l0,0c1.3,0.9,2,2.2,2.3,3.6l0,0l0,0c-1.5,0.6-2.5,1.1-3.2,1.6l0,0
			l0,0c-1.7,1.3-3.7,3.3-6,6.2l0,0l-5.8,7l0,0c-0.9,1.1-1.6,1.9-2,2.4l0,0l0,0c0.6,3.6,1.9,7.1,3.8,10.7l0,0l0,0
			C133.5-21,135.4-18.8,137.4-17.8z M158.2-17.5L158.2-17.5L158.2-17.5c-1.3,3.2-4.1,4.8-8.3,4.8l0,0l0,0c-2.2,0-3.9-0.7-5.3-2.2
			l0,0l0,0c-1.2-1.3-1.7-2.6-1.7-4l0,0l0,0c0-3.5,0.8-8.5,2.4-15.3l0,0l2.4-12.4l13-1.3l-3.9,20.2l0,0c-0.7,3.2-1.1,5.3-1.1,6.4l0,0
			l0,0C155.6-18.9,156.4-17.6,158.2-17.5z M148.7-55.5L148.7-55.5L148.7-55.5c0-1.7,0.7-2.9,2.1-3.8l0,0l0,0
			c1.4-0.9,3.1-1.3,5.1-1.3l0,0l0,0c2,0,3.6,0.4,4.8,1.3l0,0l0,0c1.2,0.9,1.8,2.2,1.8,3.8l0,0l0,0c0,1.7-0.7,2.9-2,3.8l0,0l0,0
			c-1.3,0.9-3,1.3-5,1.3l0,0l0,0c-2,0-3.6-0.4-4.9-1.3l0,0l0,0C149.4-52.6,148.7-53.9,148.7-55.5z M164.7-20.4L164.7-20.4
			L164.7-20.4c0-1.2,0.3-3.2,0.9-6.1l0,0l3.4-17.3h-3.8l0.3-1.9l0,0c5.1-1.5,10.2-4.2,15.1-7.9l0,0h3.1l-1.5,7h5l-0.6,2.9h-4.9
			l-3.3,17.3l0,0c-0.6,2.6-0.8,4.4-0.8,5.3l0,0l0,0c0,2,0.9,3.3,2.7,3.7l0,0l0,0c-0.4,1.5-1.4,2.6-2.9,3.5l0,0l0,0
			c-1.5,0.9-3.4,1.3-5.6,1.3l0,0l0,0c-2.2,0-3.9-0.7-5.1-2l0,0l0,0C165.3-16.1,164.7-18,164.7-20.4z M217.9-40.6L217.9-40.6
			L217.9-40.6c0,1.8-0.7,3.2-2.2,4.3l0,0l0,0c-1.5,1.1-3.5,1.7-5.9,1.7l0,0l0,0c-1,0-1.8-0.1-2.4-0.4l0,0l0,0
			c0.5-1.1,0.8-2.4,0.9-3.7l0,0l0,0c0.1-1.4,0.2-2.3,0.2-2.7l0,0l0,0c0-1.8-0.6-2.7-1.9-2.7l0,0l0,0c-0.9,0-1.8,0.5-2.7,1.6l0,0l0,0
			c-1,1.1-1.8,2.4-2.7,4.1l0,0l0,0c-1.8,3.8-2.7,7.7-2.7,11.6l0,0l0,0c0,2.1,0.4,3.7,1.2,4.6l0,0l0,0c0.8,1,2.1,1.4,3.9,1.4l0,0l0,0
			c2.5,0,4.7-1,6.7-3.1l0,0l0,0c0.6-0.6,1-1.3,1.3-2l0,0l0,0c1.6,0.9,2.4,2.5,2.4,4.8l0,0l0,0c0,2.4-1.3,4.4-4,6l0,0l0,0
			c-2.7,1.6-6.3,2.4-10.6,2.4l0,0l0,0c-8.7,0-13-4.6-13-13.8l0,0l0,0c0-6.7,1.9-12,5.7-15.8l0,0l0,0c3.7-3.8,8.9-5.6,15.6-5.6l0,0
			l0,0C214.5-47.9,217.9-45.5,217.9-40.6z M251.8-21.1L251.8-21.1L251.8-21.1c0,1.9,1,3.1,2.9,3.6l0,0l0,0c-0.5,1.6-1.6,2.8-3.5,3.6
			l0,0l0,0c-1.5,0.7-3.1,1.1-4.8,1.1l0,0l0,0c-1.7,0-3-0.2-3.8-0.7l0,0l0,0c-0.9-0.4-1.5-1-2-1.8l0,0l0,0c-0.8-1.1-1.2-2.7-1.2-4.8
			l0,0l0,0c0-1.2,0.3-3.6,1-7l0,0l0.9-4.9l0,0c0.7-3.7,1.1-6.3,1.1-7.6l0,0l0,0c0-2.4-0.7-3.6-2-3.6l0,0l0,0c-1.7,0-3,1.2-4.1,3.6
			l0,0l0,0c-0.4,0.9-0.8,2.1-1.1,3.5l0,0L230.9-14L218-12.7l9-46.1l12.9-1.3l-0.5,2.6l0,0c-1.2,6.6-2.3,11-3.3,13.2l0,0l0,0
			c2.4-2.4,5.8-3.6,10.2-3.6l0,0l0,0c4.7,0,7.4,1.5,8.3,4.6l0,0l0,0c0.3,1,0.4,1.9,0.4,2.8l0,0l0,0c0,0.9,0,1.6-0.1,2.3l0,0l0,0
			c-0.1,0.7-0.2,1.6-0.4,2.8l0,0l-0.8,4.6l-1.5,7.2l0,0C251.9-22.7,251.8-21.8,251.8-21.1z M285.8-24.8L285.8-24.8L285.8-24.8
			c1.1,0.7,1.6,1.9,1.6,3.5l0,0l0,0c0,1.6-0.4,2.9-1.2,3.9l0,0l0,0c-0.8,1-1.9,1.9-3.2,2.6l0,0l0,0c-2.7,1.4-5.6,2.1-8.5,2.1l0,0
			l0,0c-2.9,0-5.3-0.3-7-1l0,0l0,0c-1.7-0.6-3.2-1.6-4.3-2.8l0,0l0,0c-2.3-2.3-3.4-5.5-3.4-9.6l0,0l0,0c0-6.4,1.7-11.6,5.2-15.5l0,0
			l0,0c3.8-4.2,8.9-6.3,15.4-6.3l0,0l0,0c4.1,0,7.1,0.9,9.1,2.6l0,0l0,0c1.5,1.3,2.2,3,2.2,5.1l0,0l0,0c0,7.5-6.5,11.3-19.5,11.3
			l0,0l0,0c-0.2,1.1-0.3,2.1-0.3,3.1l0,0l0,0c0,2,0.4,3.3,1.3,4.1l0,0l0,0c0.9,0.7,2.1,1.1,3.7,1.1l0,0l0,0c1.6,0,3.3-0.4,5-1.1l0,0
			l0,0C283.9-22.6,285.1-23.6,285.8-24.8z M272.8-31.8L272.8-31.8L272.8-31.8c3,0,5.4-0.9,7.2-2.8l0,0l0,0c1.7-1.8,2.6-4.1,2.6-7
			l0,0l0,0c0-1-0.2-1.7-0.5-2.3l0,0l0,0c-0.4-0.5-0.9-0.8-1.6-0.8l0,0l0,0c-0.7,0-1.4,0.1-2,0.4l0,0l0,0c-0.6,0.3-1.2,0.9-1.9,1.8
			l0,0l0,0C274.9-40.3,273.6-36.7,272.8-31.8z M321-12.7L321-12.7L321-12.7c-5.2,0-7.7-2-7.7-6l0,0l0,0c0-1.1,0.2-2.6,0.6-4.5l0,0
			l1.1-5.9l0,0c1.2-5.5,1.7-8.9,1.7-10.2l0,0l0,0c0-2.5-0.7-3.7-2.2-3.7l0,0l0,0c-2.4,0-4.3,3.2-5.6,9.5l0,0L305.2-14l-12.9,1.3
			l6.7-34l10.5-1.2l-1,6.3l0,0c2-4.2,6.1-6.3,12.2-6.3l0,0l0,0c3,0,5.1,0.6,6.4,1.9l0,0l0,0c1.3,1.3,1.9,3.3,1.9,6.1l0,0l0,0
			c0,2.6-0.7,7.1-2,13.2l0,0l0,0c-0.6,2.8-1,4.7-1,5.7l0,0l0,0c0,1,0.3,1.9,0.9,2.5l0,0l0,0c0.6,0.6,1.3,0.9,2.1,1l0,0l0,0
			c-0.4,1.5-1.4,2.6-2.9,3.5l0,0l0,0C324.6-13.1,322.9-12.7,321-12.7z M346.6-14.3L346.6-14.3l8.1-41.9l0,0c5-0.4,9.2-0.6,12.4-0.6
			l0,0l0,0c3.2,0,5.9,0.1,8,0.4l0,0l0,0c2.1,0.3,3.8,0.8,5.2,1.5l0,0l0,0c2.8,1.4,4.2,3.9,4.2,7.7l0,0l0,0c0,2.2-0.9,4.2-2.8,6l0,0
			l0,0c-1.7,1.7-3.6,2.7-5.5,3.1l0,0l0,0c2,0.3,3.8,1.3,5.2,2.8l0,0l0,0c1.5,1.6,2.3,3.7,2.3,6.2l0,0l0,0c0,4.9-1.8,8.7-5.4,11.6
			l0,0l0,0c-3.6,2.8-9,4.3-16.1,4.3l0,0l0,0C357.3-13.4,352.1-13.7,346.6-14.3z M364-34.6L360.8-18l0,0c0.4,0,0.6,0.1,0.7,0.1l0,0
			h0.6l0,0c3.5,0,6-1.2,7.5-3.5l0,0l0,0c1.1-1.8,1.7-4.3,1.7-7.6l0,0l0,0c0-1.7-0.6-3.1-1.7-4l0,0l0,0C368.4-34,366.6-34.5,364-34.6
			L364-34.6z M373.7-47.2L373.7-47.2L373.7-47.2c0-3.5-1.7-5.3-5.1-5.3l0,0H368l0,0c-0.2,0-0.4,0-0.6,0.1l0,0L364.8-39h0.6l0,0
			C371-39.1,373.7-41.8,373.7-47.2z M408.6-16.7L408.6-16.7L408.6-16.7c-2.1,2.6-5.6,4-10.7,4l0,0l0,0c-2.6,0-4.9-0.8-6.8-2.4l0,0
			l0,0c-1.9-1.6-2.9-3.6-2.9-5.9l0,0l0,0c0-1.3,0.1-2.2,0.2-2.9l0,0l4.3-22.8l13-1.3l-4.7,24.7l0,0c-0.2,0.9-0.3,1.7-0.3,2.2l0,0
			l0,0c0,2.5,0.7,3.7,2.2,3.7l0,0l0,0c1.7,0,3.1-1.1,4.3-3.4l0,0l0,0c0.4-0.7,0.7-1.5,0.8-2.5l0,0l4.5-23.5l12.6-1.3l-4.7,25l0,0
			c-0.1,0.6-0.2,1.3-0.2,2l0,0l0,0c0,0.7,0.2,1.4,0.6,2.1l0,0l0,0c0.4,0.7,1.2,1.2,2.4,1.4l0,0l0,0c-0.3,1-0.8,1.9-1.7,2.6l0,0l0,0
			c-1.9,1.5-3.8,2.2-5.9,2.2l0,0l0,0c-2,0-3.6-0.4-4.8-1.1l0,0l0,0C409.7-14.5,408.9-15.5,408.6-16.7z M448.6-47.9L448.6-47.9
			L448.6-47.9c1.5,0,2.9,0.2,4.1,0.5l0,0l0,0c0-0.2,0.1-0.5,0.2-1l0,0l0.3-2l0,0c0.2-0.9,0.4-2,0.6-3.4l0,0l1-5.1l12.7-1.3L460.5-23
			l0,0c0,0.3-0.1,0.6-0.1,1l0,0v1l0,0c0,0.9,0.2,1.8,0.7,2.5l0,0l0,0c0.5,0.7,1.1,1.1,1.9,1.1l0,0l0,0c-0.9,2-2.6,3.4-5.2,4.3l0,0
			l0,0c-0.9,0.3-2,0.4-3.2,0.4l0,0l0,0c-1.3,0-2.5-0.3-3.6-1l0,0l0,0c-1.1-0.7-1.9-1.5-2.2-2.7l0,0l0,0c-0.7,1.1-1.7,2-3.1,2.7l0,0
			l0,0c-1.4,0.7-3,1-5,1l0,0l0,0c-2,0-3.8-0.3-5.4-0.8l0,0l0,0c-1.6-0.5-3-1.3-4-2.4l0,0l0,0c-1.9-2.2-2.8-5.7-2.8-10.7l0,0l0,0
			c0-6.4,1.9-11.5,5.6-15.4l0,0l0,0C437.7-46,442.6-47.9,448.6-47.9z M448.1-44.1L448.1-44.1L448.1-44.1c-1.6,0-2.8,0.9-3.6,2.6l0,0
			l0,0c-0.9,1.7-1.7,4.7-2.6,8.9l0,0l0,0c-0.9,4.2-1.3,8.2-1.3,12l0,0l0,0c0,2.6,0.8,3.9,2.3,3.9l0,0l0,0c1.4,0,2.5-0.7,3.5-2l0,0
			l0,0c1-1.4,1.6-3.2,2-5.4l0,0l3.5-18.8l0,0C450.9-43.7,449.7-44.1,448.1-44.1z M488.6-47.9L488.6-47.9L488.6-47.9
			c1.5,0,2.9,0.2,4.1,0.5l0,0l0,0c0-0.2,0.1-0.5,0.2-1l0,0l0.3-2l0,0c0.2-0.9,0.4-2,0.6-3.4l0,0l1-5.1l12.7-1.3L500.5-23l0,0
			c0,0.3-0.1,0.6-0.1,1l0,0v1l0,0c0,0.9,0.2,1.8,0.7,2.5l0,0l0,0c0.5,0.7,1.1,1.1,1.9,1.1l0,0l0,0c-0.9,2-2.6,3.4-5.2,4.3l0,0l0,0
			c-0.9,0.3-2,0.4-3.2,0.4l0,0l0,0c-1.3,0-2.5-0.3-3.6-1l0,0l0,0c-1.1-0.7-1.9-1.5-2.2-2.7l0,0l0,0c-0.7,1.1-1.7,2-3.1,2.7l0,0l0,0
			c-1.4,0.7-3,1-5,1l0,0l0,0c-2,0-3.8-0.3-5.4-0.8l0,0l0,0c-1.6-0.5-3-1.3-4-2.4l0,0l0,0c-1.9-2.2-2.8-5.7-2.8-10.7l0,0l0,0
			c0-6.4,1.9-11.5,5.6-15.4l0,0l0,0C477.7-46,482.6-47.9,488.6-47.9z M488.1-44.1L488.1-44.1L488.1-44.1c-1.6,0-2.8,0.9-3.6,2.6l0,0
			l0,0c-0.9,1.7-1.7,4.7-2.6,8.9l0,0l0,0c-0.9,4.2-1.3,8.2-1.3,12l0,0l0,0c0,2.6,0.8,3.9,2.3,3.9l0,0l0,0c1.4,0,2.5-0.7,3.5-2l0,0
			l0,0c1-1.4,1.6-3.2,2-5.4l0,0l3.5-18.8l0,0C490.9-43.7,489.7-44.1,488.1-44.1z M523.8-17.5L523.8-17.5L523.8-17.5
			c-1.3,3.2-4.1,4.8-8.3,4.8l0,0l0,0c-2.2,0-4-0.7-5.3-2.2l0,0l0,0c-1.1-1.3-1.7-2.6-1.7-4l0,0l0,0c0-3.5,0.8-8.5,2.4-15.3l0,0
			l2.4-12.4l13-1.3l-3.9,20.2l0,0c-0.7,3.2-1.1,5.3-1.1,6.4l0,0l0,0C521.1-18.9,522-17.6,523.8-17.5z M514.3-55.5L514.3-55.5
			L514.3-55.5c0-1.7,0.7-2.9,2.1-3.8l0,0l0,0c1.4-0.9,3.1-1.3,5.1-1.3l0,0l0,0c2,0,3.6,0.4,4.8,1.3l0,0l0,0c1.2,0.9,1.8,2.2,1.8,3.8
			l0,0l0,0c0,1.7-0.7,2.9-2,3.8l0,0l0,0c-1.3,0.9-3,1.3-5,1.3l0,0l0,0c-2,0-3.6-0.4-4.9-1.3l0,0l0,0
			C514.9-52.6,514.3-53.9,514.3-55.5z M555.1-24.8L555.1-24.8L555.1-24.8c1.1,0.7,1.6,1.9,1.6,3.5l0,0l0,0c0,1.6-0.4,2.9-1.2,3.9
			l0,0l0,0c-0.8,1-1.9,1.9-3.2,2.6l0,0l0,0c-2.7,1.4-5.6,2.1-8.5,2.1l0,0l0,0c-2.9,0-5.3-0.3-7-1l0,0l0,0c-1.7-0.6-3.2-1.6-4.3-2.8
			l0,0l0,0c-2.3-2.3-3.4-5.5-3.4-9.6l0,0l0,0c0-6.4,1.7-11.6,5.2-15.5l0,0l0,0c3.8-4.2,8.9-6.3,15.4-6.3l0,0l0,0
			c4.1,0,7.1,0.9,9.1,2.6l0,0l0,0c1.5,1.3,2.2,3,2.2,5.1l0,0l0,0c0,7.5-6.5,11.3-19.5,11.3l0,0l0,0c-0.2,1.1-0.2,2.1-0.2,3.1l0,0
			l0,0c0,2,0.4,3.3,1.3,4.1l0,0l0,0c0.9,0.7,2.1,1.1,3.7,1.1l0,0l0,0c1.6,0,3.3-0.4,5-1.1l0,0l0,0C553.2-22.6,554.4-23.6,555.1-24.8
			z M542.1-31.8L542.1-31.8L542.1-31.8c3,0,5.4-0.9,7.2-2.8l0,0l0,0c1.7-1.8,2.6-4.1,2.6-7l0,0l0,0c0-1-0.2-1.7-0.5-2.3l0,0l0,0
			c-0.4-0.5-0.9-0.8-1.6-0.8l0,0l0,0c-0.7,0-1.4,0.1-2,0.4l0,0l0,0c-0.6,0.3-1.2,0.9-1.9,1.8l0,0l0,0
			C544.2-40.3,543-36.7,542.1-31.8z M582.4-36.5L582.4-36.5L582.4-36.5c0.6-1.6,0.9-3.1,0.9-4.4l0,0l0,0c0-2.5-1-3.8-3.1-3.8l0,0
			l0,0c-1.1,0-2,0.5-2.9,1.4l0,0l0,0c-0.9,1-1.3,2-1.3,3.2l0,0l0,0c0,0.9,0.3,1.6,1,2.3l0,0l0,0c1,0.9,2.7,2.2,5.2,3.7l0,0l0,0
			c2.5,1.5,4.3,2.9,5.2,4.2l0,0l0,0c1,1.3,1.4,2.8,1.4,4.5l0,0l0,0c0,1.7-0.4,3.4-1.2,5l0,0l0,0c-0.8,1.6-2,2.9-3.5,4l0,0l0,0
			c-3.2,2.4-7.4,3.6-12.5,3.6l0,0l0,0c-2.8,0-5.2-0.7-7.4-2.2l0,0l0,0c-2.1-1.4-3.2-2.9-3.2-4.6l0,0l0,0c0-1.7,0.6-3,1.8-4l0,0l0,0
			c1.2-1,2.7-1.5,4.5-1.5l0,0l0,0c1.8,0,3.2,0.3,4.4,1l0,0l0,0c-0.6,1.4-0.8,2.6-0.8,3.5l0,0l0,0c0,2.8,1.2,4.2,3.6,4.2l0,0l0,0
			c1,0,1.9-0.3,2.6-1l0,0l0,0c0.7-0.6,1-1.5,1-2.6l0,0l0,0c0-2.2-1.8-4.4-5.5-6.7l0,0l0,0c-3-2-4.8-3.3-5.5-4.1l0,0l0,0
			c-1.2-1.4-1.7-2.9-1.7-4.6l0,0l0,0c0-1.7,0.4-3.4,1.2-5l0,0l0,0c0.8-1.6,2-3,3.4-4.2l0,0l0,0c3.1-2.4,7.4-3.6,12.8-3.6l0,0l0,0
			c2.8,0,5,0.6,6.6,1.7l0,0l0,0c1.6,1.1,2.5,2.6,2.5,4.5l0,0l0,0c0,1.9-0.6,3.4-1.7,4.4l0,0l0,0c-1.1,1.1-2.7,1.6-4.8,1.6l0,0l0,0
			C584.1-35.8,583.1-36,582.4-36.5z"/>
	</g>
</g>
</svg>
