<?xml version="1.0" encoding="iso-8859-1"?>
<!-- Generator: Adobe Illustrator 16.0.0, SVG Export Plug-In . SVG Version: 6.00 Build 0)  -->
<!DOCTYPE svg PUBLIC "-//W3C//DTD SVG 1.1//EN" "http://www.w3.org/Graphics/SVG/1.1/DTD/svg11.dtd">
<svg version="1.1" id="Capa_1" xmlns="http://www.w3.org/2000/svg" xmlns:xlink="http://www.w3.org/1999/xlink" x="0px" y="0px"
	 width="326.229px" height="326.229px" viewBox="0 0 326.229 326.229" style="enable-background:new 0 0 326.229 326.229;"
	 xml:space="preserve">
<g>
	<g>
		<path d="M224.832,305.878H101.397c-7.305,0-13.226-5.921-13.226-13.217v-41.331c-5.02,1.093-10.127,1.651-15.27,1.651
			C32.714,252.982,0,220.274,0,180.078c0-38.662,30.246-70.391,68.311-72.769c4.876-48.762,46.153-86.958,96.161-86.958
			c50.092,0,91.405,38.32,96.196,87.184c36.762,3.69,65.561,34.804,65.561,72.544c0,40.196-32.702,72.904-72.893,72.904
			c-5.146,0-10.268-0.553-15.27-1.627v41.307C238.055,299.958,232.14,305.878,224.832,305.878z"/>
	</g>
</g>
<g>
</g>
<g>
</g>
<g>
</g>
<g>
</g>
<g>
</g>
<g>
</g>
<g>
</g>
<g>
</g>
<g>
</g>
<g>
</g>
<g>
</g>
<g>
</g>
<g>
</g>
<g>
</g>
<g>
</g>
</svg>
