<?xml version="1.0" encoding="utf-8"?>
<!-- Generator: Adobe Illustrator 26.0.1, SVG Export Plug-In . SVG Version: 6.00 Build 0)  -->
<svg version="1.1" xmlns="http://www.w3.org/2000/svg" xmlns:xlink="http://www.w3.org/1999/xlink" x="0px" y="0px"
	 viewBox="0 0 1080 1080" enable-background="new 0 0 1080 1080" xml:space="preserve">
<g id="Layer_1">
	<g id="Layer_2">
	</g>
</g>
<g id="Layer_3">
	<path fill="#262626" stroke="#000000" stroke-miterlimit="10" d="M331.01,380.96l362.2-92.68c-70.3-18.36-134.01-19.25-191.46-4.88
		C437.57,296.75,381.57,331.72,331.01,380.96z"/>
	<path fill="#262626" stroke="#000000" stroke-miterlimit="10" d="M331.01,400.47h375.61l-20.73,25.61c0,0,54.88,193.9,54.88,234.15
		c0,54.88-451.22,40.07-451.22,0c0-40.07,52.44-230.49,52.44-230.49L331.01,400.47z"/>
	<path fill="#262626" stroke="#000000" stroke-miterlimit="10" d="M507.36,263.87l-24.33,5.77c0,0-20.46-17.57-18.34-24.48
		c2.12-6.91,38.3-23.49,47.46-11.25L507.36,263.87z"/>
	<polyline fill="#262626" stroke="#000000" stroke-miterlimit="10" points="341.16,440.39 273.16,411.26 269.98,450.84 
		338.7,470.98 	"/>
	<polyline fill="#262626" stroke="#000000" stroke-miterlimit="10" points="683.01,440.39 751.01,411.26 754.18,450.84 
		685.46,470.98 	"/>
	<path fill="#262626" stroke="#000000" stroke-miterlimit="10" d="M511.35,766.19l333.79-108.12c7.38-2.39,15.3,0.86,19.48,7.99v0
		c6.49,11.08,1.15,25.92-10.46,29.06l-331.08,89.53c-4.56,1.23-8.47,4.45-10.84,8.91l-11.51,21.61c-2.09,3.92-5.37,6.89-9.25,8.39
		L424.4,849.4c-4.06,1.56-8.5,1.41-12.47-0.43l-21.78-10.13c-4.55-2.11-8.06-6.26-9.68-11.41l-8.25-26.33
		c-3.2-10.19,1.84-21.29,11.15-24.56l21.75-7.64c1.26-0.44,2.55-0.72,3.87-0.84l66.39-5.94"/>
	<g id="XMLID_00000026856081361357350640000009690320638189311112_">
		<g>
			<path fill="#616160" d="M850.42,294.88c3-4.06,6.05-8.33,9.15-12.82C859.08,282.86,855.95,287.88,850.42,294.88z"/>
			<path fill="#262626" d="M697.95,336.17c76.2,39.95,131.53-14.8,152.47-41.29c-138.2,187.43-173.39-63.41-323.62,98.68
				C527.71,392.2,600.41,285.04,697.95,336.17z"/>
		</g>
		<g>
		</g>
	</g>
</g>
</svg>
